<mxfile host="app.diagrams.net" modified="2021-12-03T09:23:58.611Z" agent="5.0 (Windows NT 10.0; Win64; x64) AppleWebKit/537.36 (KHTML, like Gecko) Chrome/95.0.4638.69 Safari/537.36" etag="oWksjDbsqkXFfsOxXtGG" version="15.8.9" type="github">
  <diagram name="Page-1" id="ad52d381-51e7-2e0d-a935-2d0ddd2fd229">
    <mxGraphModel dx="1483" dy="794" grid="0" gridSize="10" guides="1" tooltips="1" connect="1" arrows="1" fold="1" page="1" pageScale="1" pageWidth="1100" pageHeight="850" background="none" math="0" shadow="0">
      <root>
        <mxCell id="0" />
        <mxCell id="1" parent="0" />
        <mxCell id="4-xuoBfGqqCp5ch33_Rw-7" style="edgeStyle=none;rounded=0;orthogonalLoop=1;jettySize=auto;html=1;entryX=0.5;entryY=1;entryDx=0;entryDy=0;endArrow=none;endFill=0;strokeColor=default;exitX=0.5;exitY=0;exitDx=0;exitDy=0;" edge="1" parent="1" source="4-xuoBfGqqCp5ch33_Rw-1" target="4-xuoBfGqqCp5ch33_Rw-3">
          <mxGeometry relative="1" as="geometry">
            <mxPoint x="530" y="270" as="sourcePoint" />
          </mxGeometry>
        </mxCell>
        <mxCell id="4-xuoBfGqqCp5ch33_Rw-8" style="edgeStyle=none;rounded=0;orthogonalLoop=1;jettySize=auto;html=1;entryX=0.5;entryY=1;entryDx=0;entryDy=0;endArrow=none;endFill=0;strokeColor=default;exitX=0.5;exitY=0;exitDx=0;exitDy=0;" edge="1" parent="1" source="4-xuoBfGqqCp5ch33_Rw-1" target="4-xuoBfGqqCp5ch33_Rw-4">
          <mxGeometry relative="1" as="geometry" />
        </mxCell>
        <mxCell id="4-xuoBfGqqCp5ch33_Rw-9" style="edgeStyle=none;rounded=0;orthogonalLoop=1;jettySize=auto;html=1;entryX=0.5;entryY=1;entryDx=0;entryDy=0;endArrow=none;endFill=0;strokeColor=default;exitX=0.5;exitY=0;exitDx=0;exitDy=0;" edge="1" parent="1" source="4-xuoBfGqqCp5ch33_Rw-1" target="4-xuoBfGqqCp5ch33_Rw-2">
          <mxGeometry relative="1" as="geometry" />
        </mxCell>
        <mxCell id="4-xuoBfGqqCp5ch33_Rw-20" value="m" style="edgeStyle=none;rounded=0;orthogonalLoop=1;jettySize=auto;html=1;entryX=0;entryY=0.5;entryDx=0;entryDy=0;endArrow=none;endFill=0;strokeColor=default;exitX=1;exitY=0.5;exitDx=0;exitDy=0;fontSize=15;fontStyle=1" edge="1" parent="1" source="4-xuoBfGqqCp5ch33_Rw-1" target="4-xuoBfGqqCp5ch33_Rw-19">
          <mxGeometry relative="1" as="geometry">
            <mxPoint x="640" y="305" as="sourcePoint" />
            <mxPoint as="offset" />
          </mxGeometry>
        </mxCell>
        <mxCell id="4-xuoBfGqqCp5ch33_Rw-94" style="edgeStyle=none;rounded=0;orthogonalLoop=1;jettySize=auto;html=1;exitX=0.5;exitY=0;exitDx=0;exitDy=0;endArrow=none;endFill=0;strokeColor=default;entryX=0.5;entryY=1;entryDx=0;entryDy=0;" edge="1" parent="1" source="4-xuoBfGqqCp5ch33_Rw-1" target="4-xuoBfGqqCp5ch33_Rw-95">
          <mxGeometry relative="1" as="geometry">
            <mxPoint x="360" y="200" as="targetPoint" />
          </mxGeometry>
        </mxCell>
        <mxCell id="4-xuoBfGqqCp5ch33_Rw-96" style="edgeStyle=none;rounded=0;orthogonalLoop=1;jettySize=auto;html=1;exitX=0.5;exitY=0;exitDx=0;exitDy=0;endArrow=none;endFill=0;strokeColor=default;entryX=0.5;entryY=1;entryDx=0;entryDy=0;" edge="1" parent="1" source="4-xuoBfGqqCp5ch33_Rw-1" target="4-xuoBfGqqCp5ch33_Rw-97">
          <mxGeometry relative="1" as="geometry">
            <mxPoint x="370" y="50" as="targetPoint" />
          </mxGeometry>
        </mxCell>
        <mxCell id="4-xuoBfGqqCp5ch33_Rw-1" value="Book" style="rounded=0;whiteSpace=wrap;html=1;" vertex="1" parent="1">
          <mxGeometry x="445" y="280" width="210" height="50" as="geometry" />
        </mxCell>
        <mxCell id="4-xuoBfGqqCp5ch33_Rw-2" value="Publish_Year" style="ellipse;whiteSpace=wrap;html=1;" vertex="1" parent="1">
          <mxGeometry x="750" y="133" width="90" height="40" as="geometry" />
        </mxCell>
        <mxCell id="4-xuoBfGqqCp5ch33_Rw-3" value="Author_ID" style="ellipse;whiteSpace=wrap;html=1;fontStyle=4" vertex="1" parent="1">
          <mxGeometry x="550" y="26" width="60" height="40" as="geometry" />
        </mxCell>
        <mxCell id="4-xuoBfGqqCp5ch33_Rw-4" value="Format_ID" style="ellipse;whiteSpace=wrap;html=1;fontStyle=4" vertex="1" parent="1">
          <mxGeometry x="625" y="26" width="60" height="40" as="geometry" />
        </mxCell>
        <mxCell id="4-xuoBfGqqCp5ch33_Rw-11" style="edgeStyle=none;rounded=0;orthogonalLoop=1;jettySize=auto;html=1;entryX=0.5;entryY=1;entryDx=0;entryDy=0;endArrow=none;endFill=0;strokeColor=default;exitX=0.5;exitY=0;exitDx=0;exitDy=0;" edge="1" parent="1" target="4-xuoBfGqqCp5ch33_Rw-12" source="4-xuoBfGqqCp5ch33_Rw-1">
          <mxGeometry relative="1" as="geometry">
            <mxPoint x="639.9985714285713" y="300" as="sourcePoint" />
          </mxGeometry>
        </mxCell>
        <mxCell id="4-xuoBfGqqCp5ch33_Rw-12" value="Language" style="ellipse;whiteSpace=wrap;html=1;" vertex="1" parent="1">
          <mxGeometry x="682" y="133" width="60" height="40" as="geometry" />
        </mxCell>
        <mxCell id="4-xuoBfGqqCp5ch33_Rw-13" style="edgeStyle=none;rounded=0;orthogonalLoop=1;jettySize=auto;html=1;entryX=0.5;entryY=1;entryDx=0;entryDy=0;endArrow=none;endFill=0;strokeColor=default;exitX=0.5;exitY=0;exitDx=0;exitDy=0;" edge="1" parent="1" target="4-xuoBfGqqCp5ch33_Rw-14" source="4-xuoBfGqqCp5ch33_Rw-1">
          <mxGeometry relative="1" as="geometry">
            <mxPoint x="578.4790322580645" y="290" as="sourcePoint" />
          </mxGeometry>
        </mxCell>
        <mxCell id="4-xuoBfGqqCp5ch33_Rw-14" value="ISBN" style="ellipse;whiteSpace=wrap;html=1;fontStyle=0" vertex="1" parent="1">
          <mxGeometry x="320" y="93" width="60" height="40" as="geometry" />
        </mxCell>
        <mxCell id="4-xuoBfGqqCp5ch33_Rw-15" style="edgeStyle=none;rounded=0;orthogonalLoop=1;jettySize=auto;html=1;entryX=0.5;entryY=1;entryDx=0;entryDy=0;endArrow=none;endFill=0;strokeColor=default;exitX=0.5;exitY=0;exitDx=0;exitDy=0;" edge="1" parent="1" target="4-xuoBfGqqCp5ch33_Rw-16" source="4-xuoBfGqqCp5ch33_Rw-1">
          <mxGeometry relative="1" as="geometry">
            <mxPoint x="530" y="280" as="sourcePoint" />
          </mxGeometry>
        </mxCell>
        <mxCell id="4-xuoBfGqqCp5ch33_Rw-16" value="Price" style="ellipse;whiteSpace=wrap;html=1;" vertex="1" parent="1">
          <mxGeometry x="335" y="140" width="60" height="40" as="geometry" />
        </mxCell>
        <mxCell id="4-xuoBfGqqCp5ch33_Rw-17" style="edgeStyle=none;rounded=0;orthogonalLoop=1;jettySize=auto;html=1;entryX=0.5;entryY=1;entryDx=0;entryDy=0;endArrow=none;endFill=0;strokeColor=default;exitX=0.5;exitY=0;exitDx=0;exitDy=0;" edge="1" parent="1" target="4-xuoBfGqqCp5ch33_Rw-18" source="4-xuoBfGqqCp5ch33_Rw-1">
          <mxGeometry relative="1" as="geometry">
            <mxPoint x="724.9590322580646" y="450" as="sourcePoint" />
          </mxGeometry>
        </mxCell>
        <mxCell id="4-xuoBfGqqCp5ch33_Rw-18" value="Title" style="ellipse;whiteSpace=wrap;html=1;" vertex="1" parent="1">
          <mxGeometry x="385" y="110" width="60" height="40" as="geometry" />
        </mxCell>
        <mxCell id="4-xuoBfGqqCp5ch33_Rw-22" value="n" style="edgeStyle=none;rounded=0;orthogonalLoop=1;jettySize=auto;html=1;entryX=0;entryY=0.5;entryDx=0;entryDy=0;endArrow=none;endFill=0;strokeColor=default;exitX=1;exitY=0.5;exitDx=0;exitDy=0;fontSize=15;fontStyle=1" edge="1" parent="1" source="4-xuoBfGqqCp5ch33_Rw-19" target="4-xuoBfGqqCp5ch33_Rw-21">
          <mxGeometry x="0.0588" relative="1" as="geometry">
            <mxPoint x="940" y="305" as="sourcePoint" />
            <mxPoint x="1070" y="305" as="targetPoint" />
            <mxPoint as="offset" />
          </mxGeometry>
        </mxCell>
        <mxCell id="4-xuoBfGqqCp5ch33_Rw-19" value="Written_by" style="rhombus;whiteSpace=wrap;html=1;" vertex="1" parent="1">
          <mxGeometry x="730" y="265" width="130" height="80" as="geometry" />
        </mxCell>
        <mxCell id="4-xuoBfGqqCp5ch33_Rw-27" style="edgeStyle=none;rounded=0;orthogonalLoop=1;jettySize=auto;html=1;entryX=0.5;entryY=0;entryDx=0;entryDy=0;endArrow=none;endFill=0;strokeColor=default;exitX=0.5;exitY=1;exitDx=0;exitDy=0;" edge="1" parent="1" source="4-xuoBfGqqCp5ch33_Rw-21" target="4-xuoBfGqqCp5ch33_Rw-26">
          <mxGeometry relative="1" as="geometry" />
        </mxCell>
        <mxCell id="4-xuoBfGqqCp5ch33_Rw-21" value="Author" style="rounded=0;whiteSpace=wrap;html=1;" vertex="1" parent="1">
          <mxGeometry x="940" y="275" width="120" height="60" as="geometry" />
        </mxCell>
        <mxCell id="4-xuoBfGqqCp5ch33_Rw-23" style="edgeStyle=none;rounded=0;orthogonalLoop=1;jettySize=auto;html=1;entryX=0.5;entryY=0;entryDx=0;entryDy=0;endArrow=none;endFill=0;strokeColor=default;exitX=0.5;exitY=1;exitDx=0;exitDy=0;" edge="1" parent="1" target="4-xuoBfGqqCp5ch33_Rw-24" source="4-xuoBfGqqCp5ch33_Rw-21">
          <mxGeometry relative="1" as="geometry">
            <mxPoint x="1160" y="360" as="sourcePoint" />
          </mxGeometry>
        </mxCell>
        <mxCell id="4-xuoBfGqqCp5ch33_Rw-24" value="Author_ID" style="ellipse;whiteSpace=wrap;html=1;" vertex="1" parent="1">
          <mxGeometry x="1010" y="370" width="70" height="40" as="geometry" />
        </mxCell>
        <mxCell id="4-xuoBfGqqCp5ch33_Rw-26" value="Name" style="ellipse;whiteSpace=wrap;html=1;" vertex="1" parent="1">
          <mxGeometry x="930" y="370" width="70" height="40" as="geometry" />
        </mxCell>
        <mxCell id="4-xuoBfGqqCp5ch33_Rw-31" value="1" style="edgeStyle=none;rounded=0;orthogonalLoop=1;jettySize=auto;html=1;entryX=0;entryY=0.5;entryDx=0;entryDy=0;endArrow=none;endFill=0;strokeColor=default;exitX=1;exitY=0.5;exitDx=0;exitDy=0;fontSize=15;fontStyle=1" edge="1" parent="1" source="4-xuoBfGqqCp5ch33_Rw-30" target="4-xuoBfGqqCp5ch33_Rw-1">
          <mxGeometry relative="1" as="geometry" />
        </mxCell>
        <mxCell id="4-xuoBfGqqCp5ch33_Rw-33" value="n" style="edgeStyle=none;rounded=0;orthogonalLoop=1;jettySize=auto;html=1;entryX=1;entryY=0.5;entryDx=0;entryDy=0;endArrow=none;endFill=0;strokeColor=default;exitX=0;exitY=0.5;exitDx=0;exitDy=0;fontSize=15;fontStyle=1" edge="1" parent="1" source="4-xuoBfGqqCp5ch33_Rw-30" target="4-xuoBfGqqCp5ch33_Rw-32">
          <mxGeometry relative="1" as="geometry" />
        </mxCell>
        <mxCell id="4-xuoBfGqqCp5ch33_Rw-30" value="Published_by" style="rhombus;whiteSpace=wrap;html=1;" vertex="1" parent="1">
          <mxGeometry x="240" y="265" width="130" height="80" as="geometry" />
        </mxCell>
        <mxCell id="4-xuoBfGqqCp5ch33_Rw-32" value="Publisher" style="rounded=0;whiteSpace=wrap;html=1;" vertex="1" parent="1">
          <mxGeometry x="50" y="275" width="120" height="60" as="geometry" />
        </mxCell>
        <mxCell id="4-xuoBfGqqCp5ch33_Rw-40" style="edgeStyle=none;rounded=0;orthogonalLoop=1;jettySize=auto;html=1;entryX=0.5;entryY=1;entryDx=0;entryDy=0;endArrow=none;endFill=0;strokeColor=default;exitX=0.5;exitY=0;exitDx=0;exitDy=0;" edge="1" parent="1" source="4-xuoBfGqqCp5ch33_Rw-37" target="4-xuoBfGqqCp5ch33_Rw-32">
          <mxGeometry relative="1" as="geometry" />
        </mxCell>
        <mxCell id="4-xuoBfGqqCp5ch33_Rw-37" value="Publisher_ID" style="ellipse;whiteSpace=wrap;html=1;" vertex="1" parent="1">
          <mxGeometry x="110" y="370" width="80" height="40" as="geometry" />
        </mxCell>
        <mxCell id="4-xuoBfGqqCp5ch33_Rw-41" style="edgeStyle=none;rounded=0;orthogonalLoop=1;jettySize=auto;html=1;exitX=0.5;exitY=0;exitDx=0;exitDy=0;entryX=0.5;entryY=1;entryDx=0;entryDy=0;endArrow=none;endFill=0;strokeColor=default;" edge="1" parent="1" source="4-xuoBfGqqCp5ch33_Rw-38" target="4-xuoBfGqqCp5ch33_Rw-32">
          <mxGeometry relative="1" as="geometry" />
        </mxCell>
        <mxCell id="4-xuoBfGqqCp5ch33_Rw-38" value="Name" style="ellipse;whiteSpace=wrap;html=1;" vertex="1" parent="1">
          <mxGeometry x="30" y="370" width="70" height="40" as="geometry" />
        </mxCell>
        <mxCell id="4-xuoBfGqqCp5ch33_Rw-43" style="edgeStyle=none;rounded=0;orthogonalLoop=1;jettySize=auto;html=1;entryX=0.5;entryY=0;entryDx=0;entryDy=0;endArrow=none;endFill=0;strokeColor=default;exitX=0.5;exitY=1;exitDx=0;exitDy=0;" edge="1" parent="1" source="4-xuoBfGqqCp5ch33_Rw-42" target="4-xuoBfGqqCp5ch33_Rw-1">
          <mxGeometry relative="1" as="geometry" />
        </mxCell>
        <mxCell id="4-xuoBfGqqCp5ch33_Rw-42" value="Publisher_ID" style="ellipse;whiteSpace=wrap;html=1;fontStyle=4" vertex="1" parent="1">
          <mxGeometry x="700" y="26" width="90" height="40" as="geometry" />
        </mxCell>
        <mxCell id="4-xuoBfGqqCp5ch33_Rw-47" value="1" style="edgeStyle=none;rounded=0;orthogonalLoop=1;jettySize=auto;html=1;entryX=0.5;entryY=1;entryDx=0;entryDy=0;endArrow=none;endFill=0;strokeColor=default;exitX=0.5;exitY=0;exitDx=0;exitDy=0;fontSize=15;fontStyle=1" edge="1" parent="1" source="4-xuoBfGqqCp5ch33_Rw-46" target="4-xuoBfGqqCp5ch33_Rw-1">
          <mxGeometry relative="1" as="geometry" />
        </mxCell>
        <mxCell id="4-xuoBfGqqCp5ch33_Rw-53" value="n" style="edgeStyle=none;rounded=0;orthogonalLoop=1;jettySize=auto;html=1;exitX=0.5;exitY=1;exitDx=0;exitDy=0;entryX=0.5;entryY=0;entryDx=0;entryDy=0;endArrow=none;endFill=0;strokeColor=default;fontSize=15;fontStyle=1" edge="1" parent="1" source="4-xuoBfGqqCp5ch33_Rw-46" target="4-xuoBfGqqCp5ch33_Rw-48">
          <mxGeometry relative="1" as="geometry" />
        </mxCell>
        <mxCell id="4-xuoBfGqqCp5ch33_Rw-46" value="in" style="rhombus;whiteSpace=wrap;html=1;" vertex="1" parent="1">
          <mxGeometry x="45" y="510" width="130" height="80" as="geometry" />
        </mxCell>
        <mxCell id="4-xuoBfGqqCp5ch33_Rw-48" value="Series" style="rounded=0;whiteSpace=wrap;html=1;" vertex="1" parent="1">
          <mxGeometry x="50" y="630" width="120" height="60" as="geometry" />
        </mxCell>
        <mxCell id="4-xuoBfGqqCp5ch33_Rw-52" style="edgeStyle=none;rounded=0;orthogonalLoop=1;jettySize=auto;html=1;entryX=0.5;entryY=1;entryDx=0;entryDy=0;endArrow=none;endFill=0;strokeColor=default;exitX=0.5;exitY=0;exitDx=0;exitDy=0;" edge="1" parent="1" source="4-xuoBfGqqCp5ch33_Rw-49" target="4-xuoBfGqqCp5ch33_Rw-48">
          <mxGeometry relative="1" as="geometry" />
        </mxCell>
        <mxCell id="4-xuoBfGqqCp5ch33_Rw-49" value="Series_ID" style="ellipse;whiteSpace=wrap;html=1;" vertex="1" parent="1">
          <mxGeometry x="110" y="730" width="80" height="40" as="geometry" />
        </mxCell>
        <mxCell id="4-xuoBfGqqCp5ch33_Rw-51" style="edgeStyle=none;rounded=0;orthogonalLoop=1;jettySize=auto;html=1;entryX=0.5;entryY=1;entryDx=0;entryDy=0;endArrow=none;endFill=0;strokeColor=default;exitX=0.5;exitY=0;exitDx=0;exitDy=0;" edge="1" parent="1" source="4-xuoBfGqqCp5ch33_Rw-50" target="4-xuoBfGqqCp5ch33_Rw-48">
          <mxGeometry relative="1" as="geometry" />
        </mxCell>
        <mxCell id="4-xuoBfGqqCp5ch33_Rw-50" value="Name" style="ellipse;whiteSpace=wrap;html=1;" vertex="1" parent="1">
          <mxGeometry x="30" y="730" width="70" height="40" as="geometry" />
        </mxCell>
        <mxCell id="4-xuoBfGqqCp5ch33_Rw-54" value="n" style="edgeStyle=none;rounded=0;orthogonalLoop=1;jettySize=auto;html=1;exitX=0.5;exitY=1;exitDx=0;exitDy=0;entryX=0.5;entryY=0;entryDx=0;entryDy=0;endArrow=none;endFill=0;strokeColor=default;fontSize=15;fontStyle=1" edge="1" parent="1" source="4-xuoBfGqqCp5ch33_Rw-55" target="4-xuoBfGqqCp5ch33_Rw-56">
          <mxGeometry relative="1" as="geometry" />
        </mxCell>
        <mxCell id="4-xuoBfGqqCp5ch33_Rw-61" value="m" style="edgeStyle=none;rounded=0;orthogonalLoop=1;jettySize=auto;html=1;entryX=0.5;entryY=1;entryDx=0;entryDy=0;endArrow=none;endFill=0;strokeColor=default;exitX=0.5;exitY=0;exitDx=0;exitDy=0;fontSize=15;fontStyle=1" edge="1" parent="1" source="4-xuoBfGqqCp5ch33_Rw-55" target="4-xuoBfGqqCp5ch33_Rw-1">
          <mxGeometry relative="1" as="geometry" />
        </mxCell>
        <mxCell id="4-xuoBfGqqCp5ch33_Rw-55" value="in" style="rhombus;whiteSpace=wrap;html=1;" vertex="1" parent="1">
          <mxGeometry x="935" y="510" width="130" height="80" as="geometry" />
        </mxCell>
        <mxCell id="4-xuoBfGqqCp5ch33_Rw-56" value="Genre" style="rounded=0;whiteSpace=wrap;html=1;" vertex="1" parent="1">
          <mxGeometry x="940" y="630" width="120" height="60" as="geometry" />
        </mxCell>
        <mxCell id="4-xuoBfGqqCp5ch33_Rw-57" style="edgeStyle=none;rounded=0;orthogonalLoop=1;jettySize=auto;html=1;entryX=0.5;entryY=1;entryDx=0;entryDy=0;endArrow=none;endFill=0;strokeColor=default;exitX=0.5;exitY=0;exitDx=0;exitDy=0;" edge="1" parent="1" source="4-xuoBfGqqCp5ch33_Rw-58" target="4-xuoBfGqqCp5ch33_Rw-56">
          <mxGeometry relative="1" as="geometry" />
        </mxCell>
        <mxCell id="4-xuoBfGqqCp5ch33_Rw-58" value="Genre_ID" style="ellipse;whiteSpace=wrap;html=1;" vertex="1" parent="1">
          <mxGeometry x="1010" y="730" width="80" height="40" as="geometry" />
        </mxCell>
        <mxCell id="4-xuoBfGqqCp5ch33_Rw-59" style="edgeStyle=none;rounded=0;orthogonalLoop=1;jettySize=auto;html=1;entryX=0.5;entryY=1;entryDx=0;entryDy=0;endArrow=none;endFill=0;strokeColor=default;exitX=0.5;exitY=0;exitDx=0;exitDy=0;" edge="1" parent="1" source="4-xuoBfGqqCp5ch33_Rw-60" target="4-xuoBfGqqCp5ch33_Rw-56">
          <mxGeometry relative="1" as="geometry" />
        </mxCell>
        <mxCell id="4-xuoBfGqqCp5ch33_Rw-60" value="Name" style="ellipse;whiteSpace=wrap;html=1;" vertex="1" parent="1">
          <mxGeometry x="930" y="730" width="70" height="40" as="geometry" />
        </mxCell>
        <mxCell id="4-xuoBfGqqCp5ch33_Rw-63" value="n" style="edgeStyle=none;rounded=0;orthogonalLoop=1;jettySize=auto;html=1;exitX=0.5;exitY=1;exitDx=0;exitDy=0;entryX=0.5;entryY=0;entryDx=0;entryDy=0;endArrow=none;endFill=0;strokeColor=default;fontSize=15;fontStyle=1" edge="1" parent="1" source="4-xuoBfGqqCp5ch33_Rw-64" target="4-xuoBfGqqCp5ch33_Rw-65">
          <mxGeometry relative="1" as="geometry" />
        </mxCell>
        <mxCell id="4-xuoBfGqqCp5ch33_Rw-70" value="1" style="edgeStyle=none;rounded=0;orthogonalLoop=1;jettySize=auto;html=1;endArrow=none;endFill=0;strokeColor=default;exitX=0.5;exitY=0;exitDx=0;exitDy=0;fontSize=15;fontStyle=1" edge="1" parent="1" source="4-xuoBfGqqCp5ch33_Rw-64">
          <mxGeometry relative="1" as="geometry">
            <mxPoint x="550" y="330" as="targetPoint" />
          </mxGeometry>
        </mxCell>
        <mxCell id="4-xuoBfGqqCp5ch33_Rw-64" value="has" style="rhombus;whiteSpace=wrap;html=1;" vertex="1" parent="1">
          <mxGeometry x="710" y="510" width="130" height="80" as="geometry" />
        </mxCell>
        <mxCell id="4-xuoBfGqqCp5ch33_Rw-65" value="Format" style="rounded=0;whiteSpace=wrap;html=1;" vertex="1" parent="1">
          <mxGeometry x="715" y="630" width="120" height="60" as="geometry" />
        </mxCell>
        <mxCell id="4-xuoBfGqqCp5ch33_Rw-66" style="edgeStyle=none;rounded=0;orthogonalLoop=1;jettySize=auto;html=1;entryX=0.5;entryY=1;entryDx=0;entryDy=0;endArrow=none;endFill=0;strokeColor=default;exitX=0.5;exitY=0;exitDx=0;exitDy=0;" edge="1" parent="1" source="4-xuoBfGqqCp5ch33_Rw-67" target="4-xuoBfGqqCp5ch33_Rw-65">
          <mxGeometry relative="1" as="geometry" />
        </mxCell>
        <mxCell id="4-xuoBfGqqCp5ch33_Rw-67" value="Format_ID" style="ellipse;whiteSpace=wrap;html=1;" vertex="1" parent="1">
          <mxGeometry x="775" y="730" width="80" height="40" as="geometry" />
        </mxCell>
        <mxCell id="4-xuoBfGqqCp5ch33_Rw-68" style="edgeStyle=none;rounded=0;orthogonalLoop=1;jettySize=auto;html=1;entryX=0.5;entryY=1;entryDx=0;entryDy=0;endArrow=none;endFill=0;strokeColor=default;exitX=0.5;exitY=0;exitDx=0;exitDy=0;" edge="1" parent="1" source="4-xuoBfGqqCp5ch33_Rw-69" target="4-xuoBfGqqCp5ch33_Rw-65">
          <mxGeometry relative="1" as="geometry" />
        </mxCell>
        <mxCell id="4-xuoBfGqqCp5ch33_Rw-69" value="Name" style="ellipse;whiteSpace=wrap;html=1;" vertex="1" parent="1">
          <mxGeometry x="695" y="730" width="70" height="40" as="geometry" />
        </mxCell>
        <mxCell id="4-xuoBfGqqCp5ch33_Rw-72" value="1" style="edgeStyle=none;rounded=0;orthogonalLoop=1;jettySize=auto;html=1;exitX=0.5;exitY=1;exitDx=0;exitDy=0;entryX=0.5;entryY=0;entryDx=0;entryDy=0;endArrow=none;endFill=0;strokeColor=default;fontStyle=1;fontSize=15;" edge="1" parent="1" source="4-xuoBfGqqCp5ch33_Rw-73" target="4-xuoBfGqqCp5ch33_Rw-74">
          <mxGeometry relative="1" as="geometry" />
        </mxCell>
        <mxCell id="4-xuoBfGqqCp5ch33_Rw-79" value="1" style="edgeStyle=none;rounded=0;orthogonalLoop=1;jettySize=auto;html=1;endArrow=none;endFill=0;strokeColor=default;exitX=0.5;exitY=0;exitDx=0;exitDy=0;entryX=0.5;entryY=1;entryDx=0;entryDy=0;fontStyle=1;fontSize=15;" edge="1" parent="1" source="4-xuoBfGqqCp5ch33_Rw-73" target="4-xuoBfGqqCp5ch33_Rw-1">
          <mxGeometry relative="1" as="geometry">
            <mxPoint x="550" y="330" as="targetPoint" />
          </mxGeometry>
        </mxCell>
        <mxCell id="4-xuoBfGqqCp5ch33_Rw-73" value="is" style="rhombus;whiteSpace=wrap;html=1;" vertex="1" parent="1">
          <mxGeometry x="265" y="510" width="130" height="80" as="geometry" />
        </mxCell>
        <mxCell id="4-xuoBfGqqCp5ch33_Rw-74" value="Edition" style="rounded=0;whiteSpace=wrap;html=1;" vertex="1" parent="1">
          <mxGeometry x="270" y="630" width="120" height="60" as="geometry" />
        </mxCell>
        <mxCell id="4-xuoBfGqqCp5ch33_Rw-75" style="edgeStyle=none;rounded=0;orthogonalLoop=1;jettySize=auto;html=1;entryX=0.5;entryY=1;entryDx=0;entryDy=0;endArrow=none;endFill=0;strokeColor=default;exitX=0.5;exitY=0;exitDx=0;exitDy=0;" edge="1" parent="1" source="4-xuoBfGqqCp5ch33_Rw-76" target="4-xuoBfGqqCp5ch33_Rw-74">
          <mxGeometry relative="1" as="geometry" />
        </mxCell>
        <mxCell id="4-xuoBfGqqCp5ch33_Rw-76" value="Edition_ID" style="ellipse;whiteSpace=wrap;html=1;" vertex="1" parent="1">
          <mxGeometry x="340" y="710" width="80" height="40" as="geometry" />
        </mxCell>
        <mxCell id="4-xuoBfGqqCp5ch33_Rw-77" style="edgeStyle=none;rounded=0;orthogonalLoop=1;jettySize=auto;html=1;endArrow=none;endFill=0;strokeColor=default;exitX=0.5;exitY=0;exitDx=0;exitDy=0;" edge="1" parent="1" source="4-xuoBfGqqCp5ch33_Rw-78">
          <mxGeometry relative="1" as="geometry">
            <mxPoint x="330" y="690" as="targetPoint" />
          </mxGeometry>
        </mxCell>
        <mxCell id="4-xuoBfGqqCp5ch33_Rw-78" value="Name" style="ellipse;whiteSpace=wrap;html=1;" vertex="1" parent="1">
          <mxGeometry x="250" y="710" width="70" height="40" as="geometry" />
        </mxCell>
        <mxCell id="4-xuoBfGqqCp5ch33_Rw-81" style="edgeStyle=none;rounded=0;orthogonalLoop=1;jettySize=auto;html=1;exitX=0.5;exitY=1;exitDx=0;exitDy=0;entryX=0.5;entryY=0;entryDx=0;entryDy=0;endArrow=none;endFill=0;strokeColor=default;" edge="1" parent="1" source="4-xuoBfGqqCp5ch33_Rw-80" target="4-xuoBfGqqCp5ch33_Rw-1">
          <mxGeometry relative="1" as="geometry" />
        </mxCell>
        <mxCell id="4-xuoBfGqqCp5ch33_Rw-80" value="Edition_ID" style="ellipse;whiteSpace=wrap;html=1;fontStyle=4;fillColor=default;" vertex="1" parent="1">
          <mxGeometry x="390" y="26" width="70" height="40" as="geometry" />
        </mxCell>
        <mxCell id="4-xuoBfGqqCp5ch33_Rw-83" style="edgeStyle=none;rounded=0;orthogonalLoop=1;jettySize=auto;html=1;exitX=0.5;exitY=0;exitDx=0;exitDy=0;endArrow=none;endFill=0;strokeColor=default;" edge="1" parent="1" source="4-xuoBfGqqCp5ch33_Rw-82">
          <mxGeometry relative="1" as="geometry">
            <mxPoint x="330" y="690" as="targetPoint" />
          </mxGeometry>
        </mxCell>
        <mxCell id="4-xuoBfGqqCp5ch33_Rw-82" value="Cover" style="ellipse;whiteSpace=wrap;html=1;" vertex="1" parent="1">
          <mxGeometry x="295" y="750" width="70" height="40" as="geometry" />
        </mxCell>
        <mxCell id="4-xuoBfGqqCp5ch33_Rw-95" value="status" style="ellipse;whiteSpace=wrap;html=1;" vertex="1" parent="1">
          <mxGeometry x="265" y="130" width="60" height="40" as="geometry" />
        </mxCell>
        <mxCell id="4-xuoBfGqqCp5ch33_Rw-97" value="Book_ID" style="ellipse;whiteSpace=wrap;html=1;fontStyle=4;fillColor=default;" vertex="1" parent="1">
          <mxGeometry x="470" y="26" width="70" height="40" as="geometry" />
        </mxCell>
      </root>
    </mxGraphModel>
  </diagram>
</mxfile>
